<?xml version="1.0" encoding="UTF-8" standalone="no"?><!DOCTYPE svg PUBLIC "-//W3C//DTD SVG 1.1//EN" "http://www.w3.org/Graphics/SVG/1.1/DTD/svg11.dtd"><svg width="100%" height="100%" viewBox="0 0 400 400" version="1.1" xmlns="http://www.w3.org/2000/svg" xmlns:xlink="http://www.w3.org/1999/xlink" xml:space="preserve" xmlns:serif="http://www.serif.com/" style="fill-rule:evenodd;clip-rule:evenodd;stroke-linejoin:round;stroke-miterlimit:2;"><style>path{fill:#000;}@media (prefers-color-scheme:dark){path{fill:#fff;}}</style><g id="Layer1"><path d="M200,0.421c110.086,0 199.462,89.429 199.462,199.579c0,110.151 -89.376,199.579 -199.462,199.579c-110.086,0 -199.462,-89.429 -199.462,-199.579c-0,-110.151 89.376,-199.579 199.462,-199.579Zm-130.62,209.875l-0.074,11.944l12.714,20.149l9.489,8.796l7.771,19.917l8.831,10.936l11.811,7.063l7.685,4.731l4.878,6.706l4.183,8.123l8.667,7.31l6.824,4.196l7.238,3.791l5.227,8.235l0,19.557l10.575,3.805l17.325,-0.208l15.559,0l13.403,-2.052l-10.982,-10.328l-19.512,-5.759l-7.419,-6.733l21.73,-8.961l19.521,-9.113l14.51,-9.448l13.82,-13.85l8.56,-16.645l4.773,-18.385l0.798,-23.786l-1.005,-19.991l-1.962,-26.128l-1.608,-23.111l1.737,-27.737l3.31,-14.867l7.714,-8.973l9.714,-5.199l14.763,2.579l12.872,0.633l5.204,-3.48l-6.271,-8.356l-18.515,-11.215l-11.874,-11.819l-16.502,-0.362l-12.518,6.812l-14.181,18.744l-3.712,14.532l-2.754,17.89l-0.908,15.835l-0.309,12.942l-1.693,17.353l-7.116,6.999l-22.328,3.496l-18.343,2.381l-19.295,5.252l-18.044,6.602l-12.8,9.197l-13.321,10.102l-14.125,-3.033l-20.219,-7.069l-13.813,0Z"/></g></svg>